<?xml version="1.0" encoding="UTF-8"?>
<svg width="16px" height="16px" viewBox="0 0 16 16" version="1.1" xmlns="http://www.w3.org/2000/svg" xmlns:xlink="http://www.w3.org/1999/xlink">
    <!-- Generator: Sketch 48.1 (47250) - http://www.bohemiancoding.com/sketch -->
    <title>Fill 2347</title>
    <desc>Created with Sketch.</desc>
    <defs></defs>
    <g id="DMC-LT" stroke="none" stroke-width="1" fill="none" fill-rule="evenodd" transform="translate(-1136.000000, -33.000000)">
        <g id="Nav-Bar---Unlogged" fill="#ffffff">
            <path d="M1150.83333,43.6666667 C1149.81733,43.6666667 1148.468,43.34 1147.62467,43.062 C1147.21933,42.922 1146.72,43.0493333 1146.47333,43.3053333 L1144.63933,44.61 C1142.52333,43.492 1141.17867,42.152 1140.07267,40.0593333 L1141.654,38.4193333 C1141.966,38.1073333 1142.07733,37.6533333 1141.94333,37.2286667 C1141.53867,36.0033333 1141.33333,34.9733333 1141.33333,34.1666667 C1141.33333,33.5233333 1140.81,33 1140.16667,33 L1137.16667,33 C1136.52333,33 1136,33.5233333 1136,34.1666667 C1136,42.2073333 1142.79267,49 1150.83333,49 C1151.47667,49 1152,48.4766667 1152,47.8333333 L1152,44.8333333 C1152,44.19 1151.47667,43.6666667 1150.83333,43.6666667" id="Fill-2347"></path>
        </g>
    </g>
</svg>